<svg width="30" height="18" viewBox="0 0 30 18" fill="none" xmlns="http://www.w3.org/2000/svg">
<path d="M29.3123 1.21896C29.5219 0.515712 29.3123 0 28.3212 0H25.038C24.2026 0 23.8208 0.446144 23.6112 0.936146C23.6112 0.936146 21.9419 5.04823 19.5765 7.7145C18.813 8.49034 18.4641 8.73534 18.0479 8.73534C17.8398 8.73534 17.5374 8.49034 17.5374 7.78709V1.21896C17.5374 0.375063 17.2964 0 16.6002 0H11.4411C10.9201 0 10.6057 0.390187 10.6057 0.762225C10.6057 1.56075 11.7885 1.74525 11.9097 3.99563V8.8775C11.9097 9.94673 11.7196 10.1418 11.3004 10.1418C10.188 10.1418 7.48124 6.01462 5.87483 1.29004C5.56193 0.372039 5.24604 0.00151296 4.40765 0.00151296H1.12596C0.187263 0.00151296 0.00012207 0.447656 0.00012207 0.937658C0.00012207 1.81785 1.11248 6.17342 5.18166 11.934C7.89445 15.8676 11.7136 18 15.1929 18C17.2784 18 17.5359 17.5266 17.5359 16.71V13.7367C17.5359 12.79 17.735 12.5994 18.3953 12.5994C18.8803 12.5994 19.7157 12.8474 21.6635 14.7424C23.8882 16.9897 24.2565 17.9985 25.5066 17.9985H28.7883C29.7255 17.9985 30.1941 17.5251 29.9246 16.5905C29.6297 15.6604 28.5667 14.3068 27.1564 12.7053C26.3899 11.7918 25.2446 10.8088 24.8958 10.3173C24.4092 9.68358 24.5499 9.4038 24.8958 8.8412C24.8973 8.84272 28.8961 3.15325 29.3123 1.21896Z" fill="white"/>
</svg>
