<svg width="30" height="18" viewBox="0 0 30 18" fill="none" xmlns="http://www.w3.org/2000/svg">
<path d="M29.3122 1.21896C29.5218 0.515712 29.3122 0 28.3211 0H25.0379C24.2025 0 23.8207 0.446144 23.6111 0.936146C23.6111 0.936146 21.9418 5.04823 19.5764 7.7145C18.8128 8.49034 18.464 8.73534 18.0478 8.73534C17.8397 8.73534 17.5373 8.49034 17.5373 7.78709V1.21896C17.5373 0.375063 17.2963 0 16.6001 0H11.441C10.92 0 10.6056 0.390187 10.6056 0.762225C10.6056 1.56075 11.7883 1.74525 11.9096 3.99563V8.8775C11.9096 9.94673 11.7195 10.1418 11.3003 10.1418C10.1879 10.1418 7.48112 6.01462 5.87471 1.29004C5.56181 0.372039 5.24592 0.00151296 4.40753 0.00151296H1.12584C0.18714 0.00151296 0 0.447656 0 0.937658C0 1.81785 1.11236 6.17342 5.18154 11.934C7.89433 15.8676 11.7135 18 15.1928 18C17.2783 18 17.5358 17.5266 17.5358 16.71V13.7367C17.5358 12.79 17.7349 12.5994 18.3951 12.5994C18.8802 12.5994 19.7156 12.8474 21.6634 14.7424C23.8881 16.9897 24.2564 17.9985 25.5065 17.9985H28.7882C29.7254 17.9985 30.194 17.5251 29.9245 16.5905C29.6295 15.6604 28.5666 14.3068 27.1563 12.7053C26.3898 11.7918 25.2445 10.8088 24.8956 10.3173C24.4091 9.68358 24.5498 9.4038 24.8956 8.8412C24.8971 8.84272 28.896 3.15325 29.3122 1.21896Z" fill="#E8A700"/>
</svg>
