<svg width="65" height="87" viewBox="0 0 65 87" fill="none" xmlns="http://www.w3.org/2000/svg">
<path d="M2 54.3466V24.0197C2 22.5573 2.57293 21.1548 3.59275 20.1207C4.61257 19.0866 5.99574 18.5057 7.43798 18.5057V18.5057C8.88023 18.5057 10.2634 19.0866 11.2832 20.1207C12.303 21.1548 12.876 22.5573 12.876 24.0197V43.3186" stroke="black" stroke-width="4" stroke-linecap="round" stroke-linejoin="round"/>
<path d="M12.876 43.5V13.1731C12.876 11.7107 13.4738 10.3082 14.538 9.27408C15.6021 8.24001 17.0454 7.65907 18.5504 7.65907C20.0553 7.65907 21.4987 8.24001 22.5628 9.27408C23.627 10.3082 24.2248 11.7107 24.2248 13.1731V40.743" stroke="black" stroke-width="4" stroke-linecap="round" stroke-linejoin="round"/>
<path d="M35.1006 40.8123V15.9708C35.1006 14.5169 35.6984 13.1224 36.7626 12.0943C37.8267 11.0662 39.2701 10.4886 40.775 10.4886V10.4886C42.28 10.4886 43.7233 11.0662 44.7874 12.0943C45.8516 13.1224 46.4494 14.5169 46.4494 15.9708V54.3466" stroke="black" stroke-width="4" stroke-linecap="round" stroke-linejoin="round"/>
<path d="M24.2246 40.6704V7.52434C24.2246 6.05919 24.7975 4.65405 25.8174 3.61803C26.8372 2.58201 28.2204 1.99998 29.6626 1.99998C31.1048 1.99998 32.488 2.58201 33.5078 3.61803C34.5276 4.65405 35.1006 6.05919 35.1006 7.52434V40.6704" stroke="black" stroke-width="4" stroke-linecap="round" stroke-linejoin="round"/>
<path d="M2 54.4722C2 74.8356 13.0896 85 28.3379 85C43.5862 85 49.7739 78.1312 53.2896 69.7361L62.423 44.7588C63.577 41.6279 63.0537 38.7243 60.3662 37.1962C57.677 35.6663 54.1439 36.4538 52.6884 39.2221L46.3586 54.4722" stroke="black" stroke-width="4" stroke-linecap="round" stroke-linejoin="round"/>
<path fill-rule="evenodd" clip-rule="evenodd" d="M31.3461 57.1389C31.4944 57.161 31.6442 57.172 31.7941 57.172C32.8932 57.172 33.9611 56.5919 34.8033 55.5381C35.5528 54.6001 36.0737 53.3374 36.2718 51.9808C36.7404 48.7539 35.3129 45.9659 33.022 45.6285C32.8737 45.6065 32.724 45.5954 32.574 45.5954C31.4763 45.5968 30.4063 46.1762 29.5655 47.2279C28.8153 48.1652 28.2916 49.4293 28.0963 50.788C27.6277 54.015 29.0552 56.8029 31.3461 57.1389ZM22.8085 57.1721C21.7101 57.1721 20.6414 56.5919 19.7993 55.5381C19.0491 54.6001 18.5254 53.3374 18.33 51.9823C17.8615 48.7539 19.289 45.966 21.5799 45.63C21.7282 45.6079 21.8779 45.5968 22.0279 45.5968C23.1255 45.5968 24.1956 46.1763 25.0364 47.2279C25.7866 48.1653 26.3103 49.4294 26.5063 50.7866C26.9748 54.015 25.5474 56.803 23.2565 57.1389C23.1082 57.161 22.9584 57.1721 22.8085 57.1721ZM43.8891 55.1076C43.4963 54.1766 42.8438 53.5054 42.0016 53.1673L41.9903 53.1631C41.607 53.0133 41.1989 52.9367 40.7872 52.9372H40.7419C38.8141 52.9661 36.8459 54.6001 35.8452 57.0034C35.1113 58.7608 35.027 60.651 35.6201 62.0598C36.0122 62.9914 36.6661 63.6627 37.5118 64.0008L37.521 64.0043C37.9044 64.1539 38.3125 64.2305 38.7242 64.2301C40.6704 64.2301 42.6591 62.5962 43.6782 60.1612C44.4029 58.4058 44.4829 56.5171 43.8891 55.1076ZM36.1864 65.473C35.0746 64.8067 34.0236 64.1765 33.3371 63.0443C31.4433 59.9106 30.2996 58.019 27.301 58.019C24.3024 58.019 23.1559 59.9106 21.2578 63.0443C20.5706 64.1767 19.519 64.8076 18.4049 65.4759L18.4014 65.478L18.4013 65.4781C17.1225 66.2445 15.8012 67.0365 15.2308 68.5948C15.0091 69.1566 14.8974 69.7556 14.9017 70.3593C14.9017 72.8967 16.8834 74.9612 19.3179 74.9612C20.5741 74.9612 21.911 74.5271 23.3257 74.0677C24.686 73.6258 26.0922 73.1692 27.3081 73.1692C28.5239 73.1692 29.9266 73.6258 31.2819 74.0677L31.3201 74.08C32.7178 74.5321 34.0357 74.9584 35.2841 74.9584C37.7151 74.9584 39.6932 72.8939 39.6932 70.3565C39.6952 69.7523 39.5811 69.1534 39.357 68.592C38.7867 67.0324 37.465 66.2398 36.1871 65.4734L36.1864 65.473ZM17.0907 64.0008L17.0808 64.0043C16.6982 64.1539 16.2908 64.2305 15.8798 64.2301C13.9357 64.2301 11.9477 62.5955 10.9335 60.1633C10.2011 58.4058 10.1175 56.5178 10.7106 55.1062C11.102 54.1752 11.7552 53.5019 12.5974 53.1666L12.6073 53.1631C12.9906 53.0132 13.3987 52.9366 13.8104 52.9372C15.7545 52.9372 17.7425 54.5719 18.7567 57.0041C19.4892 58.7615 19.5727 60.6496 18.9796 62.0612C18.5883 62.9922 17.935 63.6627 17.0907 64.0008Z" fill="#FFC41E"/>
</svg>
