<svg width="93" height="73" viewBox="0 0 93 73" fill="none" xmlns="http://www.w3.org/2000/svg">
<mask id="path-1-inside-1" fill="white">
<path fill-rule="evenodd" clip-rule="evenodd" d="M28.8303 0H13.8814V13.846L0 13.846V28.757H13.8814V42.603H28.8303V28.757H42.7111V13.846L28.8303 13.846V0Z"/>
</mask>
<path d="M13.8814 0V-4H9.88139V0H13.8814ZM28.8303 0H32.8303V-4H28.8303V0ZM13.8814 13.846V17.846L17.8814 17.846V13.846H13.8814ZM0 13.846L2.74807e-07 9.84595H-4V13.846H0ZM0 28.757H-4V32.757H0V28.757ZM13.8814 28.757H17.8814V24.757H13.8814V28.757ZM13.8814 42.603H9.88139V46.603H13.8814V42.603ZM28.8303 42.603V46.603H32.8303V42.603H28.8303ZM28.8303 28.757V24.757H24.8303V28.757H28.8303ZM42.7111 28.757V32.757H46.7111V28.757H42.7111ZM42.7111 13.846H46.7111V9.84595H42.7111V13.846ZM28.8303 13.846H24.8303V17.846H28.8303V13.846ZM13.8814 4H28.8303V-4H13.8814V4ZM17.8814 13.846V0H9.88139V13.846H17.8814ZM-2.74807e-07 17.846H13.8814V9.84595L2.74807e-07 9.84595L-2.74807e-07 17.846ZM4 28.757V13.846H-4V28.757H4ZM13.8814 24.757H0V32.757H13.8814V24.757ZM17.8814 42.603V28.757H9.88139V42.603H17.8814ZM28.8303 38.603H13.8814V46.603H28.8303V38.603ZM24.8303 28.757V42.603H32.8303V28.757H24.8303ZM42.7111 24.757H28.8303V32.757H42.7111V24.757ZM38.7111 13.846V28.757H46.7111V13.846H38.7111ZM28.8303 17.846L42.7111 17.846V9.84595L28.8303 9.84595V17.846ZM24.8303 0V13.846H32.8303V0H24.8303Z" fill="#FFC41E" mask="url(#path-1-inside-1)"/>
<path d="M43.7445 37.9577L62.5737 44.4733V71.0532C62.5737 71.5695 62.3621 72.0647 61.9853 72.4298C61.6084 72.7949 61.0974 73 60.5645 73H52.5275C51.9946 73 51.4835 72.7949 51.1067 72.4298C50.7299 72.0647 50.5182 71.5695 50.5182 71.0532V57.4256H30.4256V71.0532C30.4256 71.5695 30.2139 72.0647 29.8371 72.4298C29.4603 72.7949 28.9492 73 28.4163 73H20.3793C19.8464 73 19.3354 72.7949 18.9585 72.4298C18.5817 72.0647 18.37 71.5695 18.37 71.0532V45.0257C13.7035 43.4136 10.333 39.133 10.333 34.0641C10.333 33.0314 10.7564 32.0411 11.51 31.3109C12.2636 30.5807 13.2857 30.1705 14.3515 30.1705C15.4173 30.1705 16.4394 30.5807 17.193 31.3109C17.9467 32.0411 18.37 33.0314 18.37 34.0641C18.372 35.0961 18.7961 36.0853 19.5492 36.8151C20.3024 37.5449 21.3234 37.9557 22.3886 37.9577H43.7445ZM74.6293 24.3301V28.2237C74.6293 30.289 73.7825 32.2697 72.2753 33.73C70.7681 35.1904 68.7238 36.0109 66.5923 36.0109H62.5737V40.3401L46.4997 34.7783V16.5429C46.4997 14.809 48.6621 13.9403 49.9292 15.1668L53.355 18.4897H60.0898C61.4599 18.4897 63.0723 19.4534 63.6839 20.6421L64.583 22.3833H72.62C73.1529 22.3833 73.664 22.5884 74.0408 22.9535C74.4176 23.3186 74.6293 23.8138 74.6293 24.3301ZM60.5645 24.3301C60.5645 23.945 60.4466 23.5686 60.2259 23.2485C60.0051 22.9284 59.6913 22.6788 59.3241 22.5315C58.957 22.3841 58.553 22.3456 58.1632 22.4207C57.7735 22.4958 57.4155 22.6812 57.1345 22.9535C56.8535 23.2258 56.6621 23.5726 56.5846 23.9503C56.507 24.3279 56.5468 24.7194 56.6989 25.0751C56.851 25.4308 57.1085 25.7349 57.4389 25.9488C57.7694 26.1627 58.1578 26.2769 58.5552 26.2769C59.0881 26.2769 59.5992 26.0718 59.976 25.7067C60.3528 25.3416 60.5645 24.8464 60.5645 24.3301Z" fill="#242424"/>
<path d="M92.9998 60.9749C92.9998 67.6746 87.483 73 80.5424 73H69.8646C62.9241 73 57.4072 67.6746 57.4072 60.9749V55.8214H92.9998V60.9749Z" fill="#FFC41E"/>
</svg>
