<svg width="93" height="67" viewBox="0 0 93 67" fill="none" xmlns="http://www.w3.org/2000/svg">
<path fill-rule="evenodd" clip-rule="evenodd" d="M36.5615 5.2763C36.5615 3.87694 37.1168 2.53489 38.1051 1.54539C39.0934 0.555894 40.4339 0 41.8316 0L73.4522 0C74.8499 0 76.1904 0.555894 77.1787 1.54539C78.167 2.53489 78.7223 3.87694 78.7223 5.2763V18.4671H36.5615V5.2763ZM66.8646 7.91445C66.5151 7.91445 66.18 8.05343 65.9329 8.3008C65.6859 8.54818 65.5471 8.88369 65.5471 9.23353V11.8717C65.5471 12.2215 65.6859 12.557 65.9329 12.8044C66.18 13.0518 66.5151 13.1908 66.8646 13.1908L72.1347 13.1908C72.4841 13.1908 72.8192 13.0518 73.0663 12.8044C73.3134 12.557 73.4522 12.2215 73.4522 11.8717V9.23353C73.4522 8.88369 73.3134 8.54818 73.0663 8.3008C72.8192 8.05343 72.4841 7.91445 72.1347 7.91445H66.8646Z" fill="#FFC41E"/>
<path d="M36.5615 23.7433V26.3815C36.5615 27.7809 37.1168 29.1229 38.1051 30.1124C39.0934 31.1019 40.4339 31.6578 41.8316 31.6578H73.4522C74.8499 31.6578 76.1904 31.1019 77.1787 30.1124C78.167 29.1229 78.7223 27.7809 78.7223 26.3815V23.7433H36.5615Z" fill="#FFC41E"/>
<mask id="path-3-inside-1" fill="white">
<rect y="24.6338" width="14.3347" height="41.3662" rx="2"/>
</mask>
<rect y="24.6338" width="14.3347" height="41.3662" rx="2" stroke="#242424" stroke-width="8" mask="url(#path-3-inside-1)"/>
<path d="M18.8535 31.6578V59.0946C25.1776 59.0946 27.1236 60.3779 33.6098 60.783C55.7078 67.7253 60.3711 65.329 71.127 59.0946C75.1062 56.7882 81.5723 51.7899 86.0489 48.1199C92.0589 42.1766 91.4544 40.6064 90.1052 39.2557C84.2027 33.3462 77.8786 47.2757 66.0736 48.1199C56.9838 48.7699 41.6203 47.2757 37.8259 47.2757" stroke="#242424" stroke-width="4"/>
<path d="M17.168 31.6578C20.8219 31.3763 28.5953 30.3247 31.9242 31.6578C36.1403 33.3463 37.8915 37.0439 40.2895 37.8465C45.7609 39.6778 54.7049 39.3721 58.0639 39.6778C62.7016 40.0999 70.2905 40.0999 69.8689 46.4314C69.6029 50.427 47.1021 47.2756 38.2484 47.2756" stroke="#242424" stroke-width="4"/>
</svg>
