<svg width="98" height="98" viewBox="0 0 98 98" fill="none" xmlns="http://www.w3.org/2000/svg">
<g filter="url(#filter0_ddi)">
<circle cx="43.5" cy="43.5" r="31.5" fill="url(#paint0_linear)"/>
<circle cx="43.5" cy="43.5" r="31" stroke="url(#paint1_linear)"/>
</g>
<g filter="url(#filter1_d)">
<circle cx="43.5" cy="43.5" r="24.5" fill="url(#paint2_linear)"/>
</g>
<g filter="url(#filter2_d)">
<path d="M43.996 37.9979C41.2417 37.9979 38.9939 40.2456 38.9939 43C38.9939 45.7544 41.2417 48.0021 43.996 48.0021C46.7503 48.0021 48.998 45.7544 48.998 43C48.998 40.2456 46.7503 37.9979 43.996 37.9979ZM58.9983 43C58.9983 40.9286 59.0171 38.876 58.9008 36.8083C58.7844 34.4067 58.2366 32.2753 56.4804 30.5191C54.7205 28.7591 52.5929 28.215 50.1913 28.0987C48.1199 27.9824 46.0673 28.0011 43.9997 28.0011C41.9284 28.0011 39.8758 27.9824 37.8082 28.0987C35.4066 28.215 33.2752 28.7629 31.519 30.5191C29.7591 32.279 29.215 34.4067 29.0987 36.8083C28.9824 38.8797 29.0011 40.9324 29.0011 43C29.0011 45.0676 28.9824 47.124 29.0987 49.1917C29.215 51.5933 29.7629 53.7247 31.519 55.4809C33.2789 57.2409 35.4066 57.785 37.8082 57.9013C39.8795 58.0176 41.9321 57.9989 43.9997 57.9989C46.0711 57.9989 48.1237 58.0176 50.1913 57.9013C52.5929 57.785 54.7243 57.2371 56.4804 55.4809C58.2403 53.721 58.7844 51.5933 58.9008 49.1917C59.0208 47.124 58.9983 45.0714 58.9983 43ZM43.996 50.6964C39.7369 50.6964 36.2997 47.2591 36.2997 43C36.2997 38.7409 39.7369 35.3035 43.996 35.3035C48.255 35.3035 51.6923 38.7409 51.6923 43C51.6923 47.2591 48.255 50.6964 43.996 50.6964ZM52.0075 36.7858C51.0131 36.7858 50.2101 35.9828 50.2101 34.9883C50.2101 33.9939 51.0131 33.1909 52.0075 33.1909C53.0019 33.1909 53.8049 33.9939 53.8049 34.9883C53.8052 35.2245 53.7589 35.4583 53.6687 35.6765C53.5785 35.8948 53.4461 36.093 53.2791 36.26C53.1122 36.427 52.9139 36.5594 52.6957 36.6496C52.4775 36.7398 52.2436 36.7861 52.0075 36.7858Z" fill="#F6F6F6"/>
</g>
<defs>
<filter id="filter0_ddi" x="0" y="0" width="98" height="98" filterUnits="userSpaceOnUse" color-interpolation-filters="sRGB">
<feFlood flood-opacity="0" result="BackgroundImageFix"/>
<feColorMatrix in="SourceAlpha" type="matrix" values="0 0 0 0 0 0 0 0 0 0 0 0 0 0 0 0 0 0 127 0"/>
<feOffset dx="-4" dy="-4"/>
<feGaussianBlur stdDeviation="4"/>
<feColorMatrix type="matrix" values="0 0 0 0 1 0 0 0 0 0.858839 0 0 0 0 0.495853 0 0 0 1 0"/>
<feBlend mode="normal" in2="BackgroundImageFix" result="effect1_dropShadow"/>
<feColorMatrix in="SourceAlpha" type="matrix" values="0 0 0 0 0 0 0 0 0 0 0 0 0 0 0 0 0 0 127 0"/>
<feOffset dx="7" dy="7"/>
<feGaussianBlur stdDeviation="8"/>
<feColorMatrix type="matrix" values="0 0 0 0 0.800295 0 0 0 0 0.592484 0 0 0 0 0 0 0 0 0.6 0"/>
<feBlend mode="normal" in2="effect1_dropShadow" result="effect2_dropShadow"/>
<feBlend mode="normal" in="SourceGraphic" in2="effect2_dropShadow" result="shape"/>
<feColorMatrix in="SourceAlpha" type="matrix" values="0 0 0 0 0 0 0 0 0 0 0 0 0 0 0 0 0 0 127 0" result="hardAlpha"/>
<feOffset dx="13" dy="22"/>
<feGaussianBlur stdDeviation="4"/>
<feComposite in2="hardAlpha" operator="arithmetic" k2="-1" k3="1"/>
<feColorMatrix type="matrix" values="0 0 0 0 0.946089 0 0 0 0 0.78037 0 0 0 0 0.311421 0 0 0 1 0"/>
<feBlend mode="normal" in2="shape" result="effect3_innerShadow"/>
</filter>
<filter id="filter1_d" x="9" y="9" width="75" height="75" filterUnits="userSpaceOnUse" color-interpolation-filters="sRGB">
<feFlood flood-opacity="0" result="BackgroundImageFix"/>
<feColorMatrix in="SourceAlpha" type="matrix" values="0 0 0 0 0 0 0 0 0 0 0 0 0 0 0 0 0 0 127 0"/>
<feOffset dx="3" dy="3"/>
<feGaussianBlur stdDeviation="6.5"/>
<feColorMatrix type="matrix" values="0 0 0 0 0.758333 0 0 0 0 0.560324 0 0 0 0 0 0 0 0 1 0"/>
<feBlend mode="normal" in2="BackgroundImageFix" result="effect1_dropShadow"/>
<feBlend mode="normal" in="SourceGraphic" in2="effect1_dropShadow" result="shape"/>
</filter>
<filter id="filter2_d" x="23" y="22" width="42" height="42" filterUnits="userSpaceOnUse" color-interpolation-filters="sRGB">
<feFlood flood-opacity="0" result="BackgroundImageFix"/>
<feColorMatrix in="SourceAlpha" type="matrix" values="0 0 0 0 0 0 0 0 0 0 0 0 0 0 0 0 0 0 127 0"/>
<feOffset/>
<feGaussianBlur stdDeviation="3"/>
<feColorMatrix type="matrix" values="0 0 0 0 0.821128 0 0 0 0 0.606722 0 0 0 0 0 0 0 0 1 0"/>
<feBlend mode="normal" in2="BackgroundImageFix" result="effect1_dropShadow"/>
<feBlend mode="normal" in="SourceGraphic" in2="effect1_dropShadow" result="shape"/>
</filter>
<linearGradient id="paint0_linear" x1="23.3203" y1="17.3308" x2="62.9665" y2="72.1033" gradientUnits="userSpaceOnUse">
<stop stop-color="#FFE193"/>
<stop offset="1" stop-color="#FFC93F"/>
</linearGradient>
<linearGradient id="paint1_linear" x1="43.5" y1="12" x2="43.5" y2="75" gradientUnits="userSpaceOnUse">
<stop stop-color="#EEBF3A"/>
<stop offset="1" stop-color="#FFDD85"/>
</linearGradient>
<linearGradient id="paint2_linear" x1="28.1" y1="19" x2="56.1" y2="68" gradientUnits="userSpaceOnUse">
<stop stop-color="#FFE28F"/>
<stop offset="1" stop-color="#ECBD37"/>
</linearGradient>
</defs>
</svg>
